<?xml version="1.0" encoding="UTF-8" standalone="no"?>
<!DOCTYPE svg PUBLIC "-//W3C//DTD SVG 1.1//EN"
 "http://www.w3.org/Graphics/SVG/1.1/DTD/svg11.dtd">
<!-- Generated by graphviz version 2.43.0 (0)
 -->
<!-- Title: Tree Pages: 1 -->
<svg width="2006pt" height="458pt"
 viewBox="0.00 0.00 2006.24 458.00" xmlns="http://www.w3.org/2000/svg" xmlns:xlink="http://www.w3.org/1999/xlink">
<g id="graph0" class="graph" transform="scale(1 1) rotate(0) translate(4 454)">
<title>Tree</title>
<polygon fill="white" stroke="transparent" points="-4,4 -4,-454 2002.24,-454 2002.24,4 -4,4"/>
<!-- 0 -->
<g id="node1" class="node">
<title>0</title>
<path fill="#f4ccae" stroke="black" d="M1063.48,-450C1063.48,-450 958.76,-450 958.76,-450 952.76,-450 946.76,-444 946.76,-438 946.76,-438 946.76,-398 946.76,-398 946.76,-392 952.76,-386 958.76,-386 958.76,-386 1063.48,-386 1063.48,-386 1069.48,-386 1075.48,-392 1075.48,-398 1075.48,-398 1075.48,-438 1075.48,-438 1075.48,-444 1069.48,-450 1063.48,-450"/>
<text text-anchor="middle" x="1011.12" y="-434.8" font-family="Helvetica,sans-Serif" font-size="14.00">avgtemp &lt;= 17.95</text>
<text text-anchor="middle" x="1011.12" y="-420.8" font-family="Helvetica,sans-Serif" font-size="14.00">mse = 22.44</text>
<text text-anchor="middle" x="1011.12" y="-406.8" font-family="Helvetica,sans-Serif" font-size="14.00">samples = 1306</text>
<text text-anchor="middle" x="1011.12" y="-392.8" font-family="Helvetica,sans-Serif" font-size="14.00">value = 22.881</text>
</g>
<!-- 1 -->
<g id="node2" class="node">
<title>1</title>
<path fill="#f9e0cf" stroke="black" d="M798.48,-350C798.48,-350 693.76,-350 693.76,-350 687.76,-350 681.76,-344 681.76,-338 681.76,-338 681.76,-298 681.76,-298 681.76,-292 687.76,-286 693.76,-286 693.76,-286 798.48,-286 798.48,-286 804.48,-286 810.48,-292 810.48,-298 810.48,-298 810.48,-338 810.48,-338 810.48,-344 804.48,-350 798.48,-350"/>
<text text-anchor="middle" x="746.12" y="-334.8" font-family="Helvetica,sans-Serif" font-size="14.00">avgtemp &lt;= 14.65</text>
<text text-anchor="middle" x="746.12" y="-320.8" font-family="Helvetica,sans-Serif" font-size="14.00">mse = 9.193</text>
<text text-anchor="middle" x="746.12" y="-306.8" font-family="Helvetica,sans-Serif" font-size="14.00">samples = 683</text>
<text text-anchor="middle" x="746.12" y="-292.8" font-family="Helvetica,sans-Serif" font-size="14.00">value = 19.421</text>
</g>
<!-- 0&#45;&gt;1 -->
<g id="edge1" class="edge">
<title>0&#45;&gt;1</title>
<path fill="none" stroke="black" d="M946.63,-393.15C908.56,-379.07 860.21,-361.19 820.53,-346.52"/>
<polygon fill="black" stroke="black" points="821.49,-343.14 810.9,-342.96 819.06,-349.71 821.49,-343.14"/>
<text text-anchor="middle" x="821.35" y="-361.47" font-family="Helvetica,sans-Serif" font-size="14.00">True</text>
</g>
<!-- 16 -->
<g id="node17" class="node">
<title>16</title>
<path fill="#f0b58b" stroke="black" d="M1303.48,-350C1303.48,-350 1198.76,-350 1198.76,-350 1192.76,-350 1186.76,-344 1186.76,-338 1186.76,-338 1186.76,-298 1186.76,-298 1186.76,-292 1192.76,-286 1198.76,-286 1198.76,-286 1303.48,-286 1303.48,-286 1309.48,-286 1315.48,-292 1315.48,-298 1315.48,-298 1315.48,-338 1315.48,-338 1315.48,-344 1309.48,-350 1303.48,-350"/>
<text text-anchor="middle" x="1251.12" y="-334.8" font-family="Helvetica,sans-Serif" font-size="14.00">avgtemp &lt;= 21.55</text>
<text text-anchor="middle" x="1251.12" y="-320.8" font-family="Helvetica,sans-Serif" font-size="14.00">mse = 9.448</text>
<text text-anchor="middle" x="1251.12" y="-306.8" font-family="Helvetica,sans-Serif" font-size="14.00">samples = 623</text>
<text text-anchor="middle" x="1251.12" y="-292.8" font-family="Helvetica,sans-Serif" font-size="14.00">value = 26.674</text>
</g>
<!-- 0&#45;&gt;16 -->
<g id="edge16" class="edge">
<title>0&#45;&gt;16</title>
<path fill="none" stroke="black" d="M1075.75,-390.61C1106.97,-377.86 1144.58,-362.51 1176.95,-349.29"/>
<polygon fill="black" stroke="black" points="1178.44,-352.46 1186.38,-345.44 1175.79,-345.98 1178.44,-352.46"/>
<text text-anchor="middle" x="1176.69" y="-364.29" font-family="Helvetica,sans-Serif" font-size="14.00">False</text>
</g>
<!-- 2 -->
<g id="node3" class="node">
<title>2</title>
<path fill="#fbede2" stroke="black" d="M427.48,-250C427.48,-250 322.76,-250 322.76,-250 316.76,-250 310.76,-244 310.76,-238 310.76,-238 310.76,-198 310.76,-198 310.76,-192 316.76,-186 322.76,-186 322.76,-186 427.48,-186 427.48,-186 433.48,-186 439.48,-192 439.48,-198 439.48,-198 439.48,-238 439.48,-238 439.48,-244 433.48,-250 427.48,-250"/>
<text text-anchor="middle" x="375.12" y="-234.8" font-family="Helvetica,sans-Serif" font-size="14.00">avgtemp &lt;= 12.25</text>
<text text-anchor="middle" x="375.12" y="-220.8" font-family="Helvetica,sans-Serif" font-size="14.00">mse = 5.516</text>
<text text-anchor="middle" x="375.12" y="-206.8" font-family="Helvetica,sans-Serif" font-size="14.00">samples = 332</text>
<text text-anchor="middle" x="375.12" y="-192.8" font-family="Helvetica,sans-Serif" font-size="14.00">value = 17.362</text>
</g>
<!-- 1&#45;&gt;2 -->
<g id="edge2" class="edge">
<title>1&#45;&gt;2</title>
<path fill="none" stroke="black" d="M681.5,-299.93C616.79,-282.84 517.34,-256.57 449.41,-238.62"/>
<polygon fill="black" stroke="black" points="450.19,-235.21 439.63,-236.04 448.4,-241.98 450.19,-235.21"/>
</g>
<!-- 9 -->
<g id="node10" class="node">
<title>9</title>
<path fill="#f6d5bc" stroke="black" d="M798.48,-250C798.48,-250 693.76,-250 693.76,-250 687.76,-250 681.76,-244 681.76,-238 681.76,-238 681.76,-198 681.76,-198 681.76,-192 687.76,-186 693.76,-186 693.76,-186 798.48,-186 798.48,-186 804.48,-186 810.48,-192 810.48,-198 810.48,-198 810.48,-238 810.48,-238 810.48,-244 804.48,-250 798.48,-250"/>
<text text-anchor="middle" x="746.12" y="-234.8" font-family="Helvetica,sans-Serif" font-size="14.00">avgtemp &lt;= 15.65</text>
<text text-anchor="middle" x="746.12" y="-220.8" font-family="Helvetica,sans-Serif" font-size="14.00">mse = 4.869</text>
<text text-anchor="middle" x="746.12" y="-206.8" font-family="Helvetica,sans-Serif" font-size="14.00">samples = 351</text>
<text text-anchor="middle" x="746.12" y="-192.8" font-family="Helvetica,sans-Serif" font-size="14.00">value = 21.368</text>
</g>
<!-- 1&#45;&gt;9 -->
<g id="edge9" class="edge">
<title>1&#45;&gt;9</title>
<path fill="none" stroke="black" d="M746.12,-285.99C746.12,-277.86 746.12,-268.96 746.12,-260.38"/>
<polygon fill="black" stroke="black" points="749.62,-260.14 746.12,-250.14 742.62,-260.14 749.62,-260.14"/>
</g>
<!-- 3 -->
<g id="node4" class="node">
<title>3</title>
<path fill="#fef8f4" stroke="black" d="M228.42,-150C228.42,-150 131.83,-150 131.83,-150 125.83,-150 119.83,-144 119.83,-138 119.83,-138 119.83,-98 119.83,-98 119.83,-92 125.83,-86 131.83,-86 131.83,-86 228.42,-86 228.42,-86 234.42,-86 240.42,-92 240.42,-98 240.42,-98 240.42,-138 240.42,-138 240.42,-144 234.42,-150 228.42,-150"/>
<text text-anchor="middle" x="180.12" y="-134.8" font-family="Helvetica,sans-Serif" font-size="14.00">wind&#45;gut &lt;= 3.55</text>
<text text-anchor="middle" x="180.12" y="-120.8" font-family="Helvetica,sans-Serif" font-size="14.00">mse = 4.064</text>
<text text-anchor="middle" x="180.12" y="-106.8" font-family="Helvetica,sans-Serif" font-size="14.00">samples = 106</text>
<text text-anchor="middle" x="180.12" y="-92.8" font-family="Helvetica,sans-Serif" font-size="14.00">value = 15.417</text>
</g>
<!-- 2&#45;&gt;3 -->
<g id="edge3" class="edge">
<title>2&#45;&gt;3</title>
<path fill="none" stroke="black" d="M313.42,-185.99C293.11,-175.78 270.39,-164.36 249.54,-153.89"/>
<polygon fill="black" stroke="black" points="250.93,-150.67 240.42,-149.3 247.78,-156.92 250.93,-150.67"/>
</g>
<!-- 6 -->
<g id="node7" class="node">
<title>6</title>
<path fill="#fae7d9" stroke="black" d="M423.42,-150C423.42,-150 326.83,-150 326.83,-150 320.83,-150 314.83,-144 314.83,-138 314.83,-138 314.83,-98 314.83,-98 314.83,-92 320.83,-86 326.83,-86 326.83,-86 423.42,-86 423.42,-86 429.42,-86 435.42,-92 435.42,-98 435.42,-98 435.42,-138 435.42,-138 435.42,-144 429.42,-150 423.42,-150"/>
<text text-anchor="middle" x="375.12" y="-134.8" font-family="Helvetica,sans-Serif" font-size="14.00">wind&#45;gut &lt;= 3.25</text>
<text text-anchor="middle" x="375.12" y="-120.8" font-family="Helvetica,sans-Serif" font-size="14.00">mse = 3.591</text>
<text text-anchor="middle" x="375.12" y="-106.8" font-family="Helvetica,sans-Serif" font-size="14.00">samples = 226</text>
<text text-anchor="middle" x="375.12" y="-92.8" font-family="Helvetica,sans-Serif" font-size="14.00">value = 18.274</text>
</g>
<!-- 2&#45;&gt;6 -->
<g id="edge6" class="edge">
<title>2&#45;&gt;6</title>
<path fill="none" stroke="black" d="M375.12,-185.99C375.12,-177.86 375.12,-168.96 375.12,-160.38"/>
<polygon fill="black" stroke="black" points="378.62,-160.14 375.12,-150.14 371.62,-160.14 378.62,-160.14"/>
</g>
<!-- 4 -->
<g id="node5" class="node">
<title>4</title>
<path fill="#fcf2ea" stroke="black" d="M96.37,-50C96.37,-50 11.88,-50 11.88,-50 5.88,-50 -0.12,-44 -0.12,-38 -0.12,-38 -0.12,-12 -0.12,-12 -0.12,-6 5.88,0 11.88,0 11.88,0 96.37,0 96.37,0 102.37,0 108.37,-6 108.37,-12 108.37,-12 108.37,-38 108.37,-38 108.37,-44 102.37,-50 96.37,-50"/>
<text text-anchor="middle" x="54.12" y="-34.8" font-family="Helvetica,sans-Serif" font-size="14.00">mse = 2.669</text>
<text text-anchor="middle" x="54.12" y="-20.8" font-family="Helvetica,sans-Serif" font-size="14.00">samples = 55</text>
<text text-anchor="middle" x="54.12" y="-6.8" font-family="Helvetica,sans-Serif" font-size="14.00">value = 16.476</text>
</g>
<!-- 3&#45;&gt;4 -->
<g id="edge4" class="edge">
<title>3&#45;&gt;4</title>
<path fill="none" stroke="black" d="M137.11,-85.94C123.78,-76.31 109.11,-65.72 95.87,-56.15"/>
<polygon fill="black" stroke="black" points="97.55,-53.05 87.39,-50.03 93.45,-58.72 97.55,-53.05"/>
</g>
<!-- 5 -->
<g id="node6" class="node">
<title>5</title>
<path fill="#ffffff" stroke="black" d="M222.37,-50C222.37,-50 137.88,-50 137.88,-50 131.88,-50 125.88,-44 125.88,-38 125.88,-38 125.88,-12 125.88,-12 125.88,-6 131.88,0 137.88,0 137.88,0 222.37,0 222.37,0 228.37,0 234.37,-6 234.37,-12 234.37,-12 234.37,-38 234.37,-38 234.37,-44 228.37,-50 222.37,-50"/>
<text text-anchor="middle" x="180.12" y="-34.8" font-family="Helvetica,sans-Serif" font-size="14.00">mse = 3.052</text>
<text text-anchor="middle" x="180.12" y="-20.8" font-family="Helvetica,sans-Serif" font-size="14.00">samples = 51</text>
<text text-anchor="middle" x="180.12" y="-6.8" font-family="Helvetica,sans-Serif" font-size="14.00">value = 14.275</text>
</g>
<!-- 3&#45;&gt;5 -->
<g id="edge5" class="edge">
<title>3&#45;&gt;5</title>
<path fill="none" stroke="black" d="M180.12,-85.94C180.12,-77.68 180.12,-68.72 180.12,-60.31"/>
<polygon fill="black" stroke="black" points="183.62,-60.03 180.12,-50.03 176.62,-60.03 183.62,-60.03"/>
</g>
<!-- 7 -->
<g id="node8" class="node">
<title>7</title>
<path fill="#f9e3d3" stroke="black" d="M348.37,-50C348.37,-50 263.88,-50 263.88,-50 257.88,-50 251.88,-44 251.88,-38 251.88,-38 251.88,-12 251.88,-12 251.88,-6 257.88,0 263.88,0 263.88,0 348.37,0 348.37,0 354.37,0 360.37,-6 360.37,-12 360.37,-12 360.37,-38 360.37,-38 360.37,-44 354.37,-50 348.37,-50"/>
<text text-anchor="middle" x="306.12" y="-34.8" font-family="Helvetica,sans-Serif" font-size="14.00">mse = 3.449</text>
<text text-anchor="middle" x="306.12" y="-20.8" font-family="Helvetica,sans-Serif" font-size="14.00">samples = 126</text>
<text text-anchor="middle" x="306.12" y="-6.8" font-family="Helvetica,sans-Serif" font-size="14.00">value = 18.926</text>
</g>
<!-- 6&#45;&gt;7 -->
<g id="edge7" class="edge">
<title>6&#45;&gt;7</title>
<path fill="none" stroke="black" d="M351.57,-85.94C344.75,-76.95 337.3,-67.12 330.44,-58.07"/>
<polygon fill="black" stroke="black" points="333.17,-55.88 324.34,-50.03 327.6,-60.11 333.17,-55.88"/>
</g>
<!-- 8 -->
<g id="node9" class="node">
<title>8</title>
<path fill="#fbece1" stroke="black" d="M474.37,-50C474.37,-50 389.88,-50 389.88,-50 383.88,-50 377.88,-44 377.88,-38 377.88,-38 377.88,-12 377.88,-12 377.88,-6 383.88,0 389.88,0 389.88,0 474.37,0 474.37,0 480.37,0 486.37,-6 486.37,-12 486.37,-12 486.37,-38 486.37,-38 486.37,-44 480.37,-50 474.37,-50"/>
<text text-anchor="middle" x="432.12" y="-34.8" font-family="Helvetica,sans-Serif" font-size="14.00">mse = 2.56</text>
<text text-anchor="middle" x="432.12" y="-20.8" font-family="Helvetica,sans-Serif" font-size="14.00">samples = 100</text>
<text text-anchor="middle" x="432.12" y="-6.8" font-family="Helvetica,sans-Serif" font-size="14.00">value = 17.453</text>
</g>
<!-- 6&#45;&gt;8 -->
<g id="edge8" class="edge">
<title>6&#45;&gt;8</title>
<path fill="none" stroke="black" d="M394.58,-85.94C400.09,-77.13 406.11,-67.52 411.68,-58.63"/>
<polygon fill="black" stroke="black" points="414.73,-60.36 417.07,-50.03 408.8,-56.65 414.73,-60.36"/>
</g>
<!-- 10 -->
<g id="node11" class="node">
<title>10</title>
<path fill="#f8ddca" stroke="black" d="M725.4,-150C725.4,-150 602.84,-150 602.84,-150 596.84,-150 590.84,-144 590.84,-138 590.84,-138 590.84,-98 590.84,-98 590.84,-92 596.84,-86 602.84,-86 602.84,-86 725.4,-86 725.4,-86 731.4,-86 737.4,-92 737.4,-98 737.4,-98 737.4,-138 737.4,-138 737.4,-144 731.4,-150 725.4,-150"/>
<text text-anchor="middle" x="664.12" y="-134.8" font-family="Helvetica,sans-Serif" font-size="14.00">sunshine &lt;= 1021.35</text>
<text text-anchor="middle" x="664.12" y="-120.8" font-family="Helvetica,sans-Serif" font-size="14.00">mse = 2.913</text>
<text text-anchor="middle" x="664.12" y="-106.8" font-family="Helvetica,sans-Serif" font-size="14.00">samples = 111</text>
<text text-anchor="middle" x="664.12" y="-92.8" font-family="Helvetica,sans-Serif" font-size="14.00">value = 19.968</text>
</g>
<!-- 9&#45;&gt;10 -->
<g id="edge10" class="edge">
<title>9&#45;&gt;10</title>
<path fill="none" stroke="black" d="M720.18,-185.99C712.7,-177.06 704.44,-167.19 696.62,-157.84"/>
<polygon fill="black" stroke="black" points="699.28,-155.57 690.18,-150.14 693.91,-160.06 699.28,-155.57"/>
</g>
<!-- 13 -->
<g id="node14" class="node">
<title>13</title>
<path fill="#f5d1b6" stroke="black" d="M890.4,-150C890.4,-150 767.84,-150 767.84,-150 761.84,-150 755.84,-144 755.84,-138 755.84,-138 755.84,-98 755.84,-98 755.84,-92 761.84,-86 767.84,-86 767.84,-86 890.4,-86 890.4,-86 896.4,-86 902.4,-92 902.4,-98 902.4,-98 902.4,-138 902.4,-138 902.4,-144 896.4,-150 890.4,-150"/>
<text text-anchor="middle" x="829.12" y="-134.8" font-family="Helvetica,sans-Serif" font-size="14.00">sunshine &lt;= 1018.15</text>
<text text-anchor="middle" x="829.12" y="-120.8" font-family="Helvetica,sans-Serif" font-size="14.00">mse = 4.448</text>
<text text-anchor="middle" x="829.12" y="-106.8" font-family="Helvetica,sans-Serif" font-size="14.00">samples = 240</text>
<text text-anchor="middle" x="829.12" y="-92.8" font-family="Helvetica,sans-Serif" font-size="14.00">value = 22.016</text>
</g>
<!-- 9&#45;&gt;13 -->
<g id="edge13" class="edge">
<title>9&#45;&gt;13</title>
<path fill="none" stroke="black" d="M772.38,-185.99C779.95,-177.06 788.31,-167.19 796.23,-157.84"/>
<polygon fill="black" stroke="black" points="798.95,-160.04 802.75,-150.14 793.61,-155.51 798.95,-160.04"/>
</g>
<!-- 11 -->
<g id="node12" class="node">
<title>11</title>
<path fill="#f8dfcc" stroke="black" d="M600.37,-50C600.37,-50 515.88,-50 515.88,-50 509.88,-50 503.88,-44 503.88,-38 503.88,-38 503.88,-12 503.88,-12 503.88,-6 509.88,0 515.88,0 515.88,0 600.37,0 600.37,0 606.37,0 612.37,-6 612.37,-12 612.37,-12 612.37,-38 612.37,-38 612.37,-44 606.37,-50 600.37,-50"/>
<text text-anchor="middle" x="558.12" y="-34.8" font-family="Helvetica,sans-Serif" font-size="14.00">mse = 2.097</text>
<text text-anchor="middle" x="558.12" y="-20.8" font-family="Helvetica,sans-Serif" font-size="14.00">samples = 102</text>
<text text-anchor="middle" x="558.12" y="-6.8" font-family="Helvetica,sans-Serif" font-size="14.00">value = 19.704</text>
</g>
<!-- 10&#45;&gt;11 -->
<g id="edge11" class="edge">
<title>10&#45;&gt;11</title>
<path fill="none" stroke="black" d="M627.94,-85.94C616.94,-76.49 604.85,-66.12 593.88,-56.7"/>
<polygon fill="black" stroke="black" points="595.98,-53.89 586.11,-50.03 591.42,-59.2 595.98,-53.89"/>
</g>
<!-- 12 -->
<g id="node13" class="node">
<title>12</title>
<path fill="#f4cbae" stroke="black" d="M726.37,-50C726.37,-50 641.88,-50 641.88,-50 635.88,-50 629.88,-44 629.88,-38 629.88,-38 629.88,-12 629.88,-12 629.88,-6 635.88,0 641.88,0 641.88,0 726.37,0 726.37,0 732.37,0 738.37,-6 738.37,-12 738.37,-12 738.37,-38 738.37,-38 738.37,-44 732.37,-50 726.37,-50"/>
<text text-anchor="middle" x="684.12" y="-34.8" font-family="Helvetica,sans-Serif" font-size="14.00">mse = 2.378</text>
<text text-anchor="middle" x="684.12" y="-20.8" font-family="Helvetica,sans-Serif" font-size="14.00">samples = 9</text>
<text text-anchor="middle" x="684.12" y="-6.8" font-family="Helvetica,sans-Serif" font-size="14.00">value = 22.967</text>
</g>
<!-- 10&#45;&gt;12 -->
<g id="edge12" class="edge">
<title>10&#45;&gt;12</title>
<path fill="none" stroke="black" d="M670.95,-85.94C672.78,-77.59 674.78,-68.52 676.64,-60.02"/>
<polygon fill="black" stroke="black" points="680.11,-60.55 678.84,-50.03 673.28,-59.05 680.11,-60.55"/>
</g>
<!-- 14 -->
<g id="node15" class="node">
<title>14</title>
<path fill="#f6d4bc" stroke="black" d="M852.37,-50C852.37,-50 767.88,-50 767.88,-50 761.88,-50 755.88,-44 755.88,-38 755.88,-38 755.88,-12 755.88,-12 755.88,-6 761.88,0 767.88,0 767.88,0 852.37,0 852.37,0 858.37,0 864.37,-6 864.37,-12 864.37,-12 864.37,-38 864.37,-38 864.37,-44 858.37,-50 852.37,-50"/>
<text text-anchor="middle" x="810.12" y="-34.8" font-family="Helvetica,sans-Serif" font-size="14.00">mse = 3.491</text>
<text text-anchor="middle" x="810.12" y="-20.8" font-family="Helvetica,sans-Serif" font-size="14.00">samples = 172</text>
<text text-anchor="middle" x="810.12" y="-6.8" font-family="Helvetica,sans-Serif" font-size="14.00">value = 21.406</text>
</g>
<!-- 13&#45;&gt;14 -->
<g id="edge14" class="edge">
<title>13&#45;&gt;14</title>
<path fill="none" stroke="black" d="M822.64,-85.94C820.89,-77.59 819,-68.52 817.23,-60.02"/>
<polygon fill="black" stroke="black" points="820.61,-59.1 815.14,-50.03 813.76,-60.53 820.61,-59.1"/>
</g>
<!-- 15 -->
<g id="node16" class="node">
<title>15</title>
<path fill="#f4c8a8" stroke="black" d="M978.37,-50C978.37,-50 893.88,-50 893.88,-50 887.88,-50 881.88,-44 881.88,-38 881.88,-38 881.88,-12 881.88,-12 881.88,-6 887.88,0 893.88,0 893.88,0 978.37,0 978.37,0 984.37,0 990.37,-6 990.37,-12 990.37,-12 990.37,-38 990.37,-38 990.37,-44 984.37,-50 978.37,-50"/>
<text text-anchor="middle" x="936.12" y="-34.8" font-family="Helvetica,sans-Serif" font-size="14.00">mse = 3.551</text>
<text text-anchor="middle" x="936.12" y="-20.8" font-family="Helvetica,sans-Serif" font-size="14.00">samples = 68</text>
<text text-anchor="middle" x="936.12" y="-6.8" font-family="Helvetica,sans-Serif" font-size="14.00">value = 23.557</text>
</g>
<!-- 13&#45;&gt;15 -->
<g id="edge15" class="edge">
<title>13&#45;&gt;15</title>
<path fill="none" stroke="black" d="M865.65,-85.94C876.75,-76.49 888.95,-66.12 900.03,-56.7"/>
<polygon fill="black" stroke="black" points="902.52,-59.17 907.87,-50.03 897.98,-53.84 902.52,-59.17"/>
</g>
<!-- 17 -->
<g id="node18" class="node">
<title>17</title>
<path fill="#f2be98" stroke="black" d="M1303.48,-250C1303.48,-250 1198.76,-250 1198.76,-250 1192.76,-250 1186.76,-244 1186.76,-238 1186.76,-238 1186.76,-198 1186.76,-198 1186.76,-192 1192.76,-186 1198.76,-186 1198.76,-186 1303.48,-186 1303.48,-186 1309.48,-186 1315.48,-192 1315.48,-198 1315.48,-198 1315.48,-238 1315.48,-238 1315.48,-244 1309.48,-250 1303.48,-250"/>
<text text-anchor="middle" x="1251.12" y="-234.8" font-family="Helvetica,sans-Serif" font-size="14.00">avgtemp &lt;= 20.25</text>
<text text-anchor="middle" x="1251.12" y="-220.8" font-family="Helvetica,sans-Serif" font-size="14.00">mse = 3.761</text>
<text text-anchor="middle" x="1251.12" y="-206.8" font-family="Helvetica,sans-Serif" font-size="14.00">samples = 431</text>
<text text-anchor="middle" x="1251.12" y="-192.8" font-family="Helvetica,sans-Serif" font-size="14.00">value = 25.221</text>
</g>
<!-- 16&#45;&gt;17 -->
<g id="edge17" class="edge">
<title>16&#45;&gt;17</title>
<path fill="none" stroke="black" d="M1251.12,-285.99C1251.12,-277.86 1251.12,-268.96 1251.12,-260.38"/>
<polygon fill="black" stroke="black" points="1254.62,-260.14 1251.12,-250.14 1247.62,-260.14 1254.62,-260.14"/>
</g>
<!-- 24 -->
<g id="node25" class="node">
<title>24</title>
<path fill="#eca26c" stroke="black" d="M1672.48,-250C1672.48,-250 1567.76,-250 1567.76,-250 1561.76,-250 1555.76,-244 1555.76,-238 1555.76,-238 1555.76,-198 1555.76,-198 1555.76,-192 1561.76,-186 1567.76,-186 1567.76,-186 1672.48,-186 1672.48,-186 1678.48,-186 1684.48,-192 1684.48,-198 1684.48,-198 1684.48,-238 1684.48,-238 1684.48,-244 1678.48,-250 1672.48,-250"/>
<text text-anchor="middle" x="1620.12" y="-234.8" font-family="Helvetica,sans-Serif" font-size="14.00">avgtemp &lt;= 23.95</text>
<text text-anchor="middle" x="1620.12" y="-220.8" font-family="Helvetica,sans-Serif" font-size="14.00">mse = 6.829</text>
<text text-anchor="middle" x="1620.12" y="-206.8" font-family="Helvetica,sans-Serif" font-size="14.00">samples = 192</text>
<text text-anchor="middle" x="1620.12" y="-192.8" font-family="Helvetica,sans-Serif" font-size="14.00">value = 29.937</text>
</g>
<!-- 16&#45;&gt;24 -->
<g id="edge24" class="edge">
<title>16&#45;&gt;24</title>
<path fill="none" stroke="black" d="M1315.82,-299.82C1380.04,-282.76 1478.39,-256.64 1545.79,-238.74"/>
<polygon fill="black" stroke="black" points="1546.73,-242.11 1555.5,-236.16 1544.94,-235.35 1546.73,-242.11"/>
</g>
<!-- 18 -->
<g id="node19" class="node">
<title>18</title>
<path fill="#f2c29f" stroke="black" d="M1230.42,-150C1230.42,-150 1133.83,-150 1133.83,-150 1127.83,-150 1121.83,-144 1121.83,-138 1121.83,-138 1121.83,-98 1121.83,-98 1121.83,-92 1127.83,-86 1133.83,-86 1133.83,-86 1230.42,-86 1230.42,-86 1236.42,-86 1242.42,-92 1242.42,-98 1242.42,-98 1242.42,-138 1242.42,-138 1242.42,-144 1236.42,-150 1230.42,-150"/>
<text text-anchor="middle" x="1182.12" y="-134.8" font-family="Helvetica,sans-Serif" font-size="14.00">wind&#45;gut &lt;= 2.05</text>
<text text-anchor="middle" x="1182.12" y="-120.8" font-family="Helvetica,sans-Serif" font-size="14.00">mse = 2.985</text>
<text text-anchor="middle" x="1182.12" y="-106.8" font-family="Helvetica,sans-Serif" font-size="14.00">samples = 294</text>
<text text-anchor="middle" x="1182.12" y="-92.8" font-family="Helvetica,sans-Serif" font-size="14.00">value = 24.541</text>
</g>
<!-- 17&#45;&gt;18 -->
<g id="edge18" class="edge">
<title>17&#45;&gt;18</title>
<path fill="none" stroke="black" d="M1229.29,-185.99C1223.12,-177.23 1216.33,-167.58 1209.87,-158.4"/>
<polygon fill="black" stroke="black" points="1212.67,-156.3 1204.05,-150.14 1206.94,-160.33 1212.67,-156.3"/>
</g>
<!-- 21 -->
<g id="node22" class="node">
<title>21</title>
<path fill="#f0b58b" stroke="black" d="M1368.42,-150C1368.42,-150 1271.83,-150 1271.83,-150 1265.83,-150 1259.83,-144 1259.83,-138 1259.83,-138 1259.83,-98 1259.83,-98 1259.83,-92 1265.83,-86 1271.83,-86 1271.83,-86 1368.42,-86 1368.42,-86 1374.42,-86 1380.42,-92 1380.42,-98 1380.42,-98 1380.42,-138 1380.42,-138 1380.42,-144 1374.42,-150 1368.42,-150"/>
<text text-anchor="middle" x="1320.12" y="-134.8" font-family="Helvetica,sans-Serif" font-size="14.00">wind&#45;gut &lt;= 3.55</text>
<text text-anchor="middle" x="1320.12" y="-120.8" font-family="Helvetica,sans-Serif" font-size="14.00">mse = 2.302</text>
<text text-anchor="middle" x="1320.12" y="-106.8" font-family="Helvetica,sans-Serif" font-size="14.00">samples = 137</text>
<text text-anchor="middle" x="1320.12" y="-92.8" font-family="Helvetica,sans-Serif" font-size="14.00">value = 26.681</text>
</g>
<!-- 17&#45;&gt;21 -->
<g id="edge21" class="edge">
<title>17&#45;&gt;21</title>
<path fill="none" stroke="black" d="M1272.95,-185.99C1279.12,-177.23 1285.91,-167.58 1292.38,-158.4"/>
<polygon fill="black" stroke="black" points="1295.3,-160.33 1298.2,-150.14 1289.58,-156.3 1295.3,-160.33"/>
</g>
<!-- 19 -->
<g id="node20" class="node">
<title>19</title>
<path fill="#f0b68c" stroke="black" d="M1104.37,-50C1104.37,-50 1019.88,-50 1019.88,-50 1013.88,-50 1007.88,-44 1007.88,-38 1007.88,-38 1007.88,-12 1007.88,-12 1007.88,-6 1013.88,0 1019.88,0 1019.88,0 1104.37,0 1104.37,0 1110.37,0 1116.37,-6 1116.37,-12 1116.37,-12 1116.37,-38 1116.37,-38 1116.37,-44 1110.37,-50 1104.37,-50"/>
<text text-anchor="middle" x="1062.12" y="-34.8" font-family="Helvetica,sans-Serif" font-size="14.00">mse = 0.927</text>
<text text-anchor="middle" x="1062.12" y="-20.8" font-family="Helvetica,sans-Serif" font-size="14.00">samples = 19</text>
<text text-anchor="middle" x="1062.12" y="-6.8" font-family="Helvetica,sans-Serif" font-size="14.00">value = 26.553</text>
</g>
<!-- 18&#45;&gt;19 -->
<g id="edge19" class="edge">
<title>18&#45;&gt;19</title>
<path fill="none" stroke="black" d="M1141.16,-85.94C1128.46,-76.31 1114.49,-65.72 1101.88,-56.15"/>
<polygon fill="black" stroke="black" points="1103.89,-53.28 1093.81,-50.03 1099.66,-58.86 1103.89,-53.28"/>
</g>
<!-- 20 -->
<g id="node21" class="node">
<title>20</title>
<path fill="#f3c3a0" stroke="black" d="M1230.37,-50C1230.37,-50 1145.88,-50 1145.88,-50 1139.88,-50 1133.88,-44 1133.88,-38 1133.88,-38 1133.88,-12 1133.88,-12 1133.88,-6 1139.88,0 1145.88,0 1145.88,0 1230.37,0 1230.37,0 1236.37,0 1242.37,-6 1242.37,-12 1242.37,-12 1242.37,-38 1242.37,-38 1242.37,-44 1236.37,-50 1230.37,-50"/>
<text text-anchor="middle" x="1188.12" y="-34.8" font-family="Helvetica,sans-Serif" font-size="14.00">mse = 2.829</text>
<text text-anchor="middle" x="1188.12" y="-20.8" font-family="Helvetica,sans-Serif" font-size="14.00">samples = 275</text>
<text text-anchor="middle" x="1188.12" y="-6.8" font-family="Helvetica,sans-Serif" font-size="14.00">value = 24.402</text>
</g>
<!-- 18&#45;&gt;20 -->
<g id="edge20" class="edge">
<title>18&#45;&gt;20</title>
<path fill="none" stroke="black" d="M1184.17,-85.94C1184.72,-77.59 1185.32,-68.52 1185.88,-60.02"/>
<polygon fill="black" stroke="black" points="1189.37,-60.24 1186.54,-50.03 1182.39,-59.78 1189.37,-60.24"/>
</g>
<!-- 22 -->
<g id="node23" class="node">
<title>22</title>
<path fill="#eeac7d" stroke="black" d="M1356.37,-50C1356.37,-50 1271.88,-50 1271.88,-50 1265.88,-50 1259.88,-44 1259.88,-38 1259.88,-38 1259.88,-12 1259.88,-12 1259.88,-6 1265.88,0 1271.88,0 1271.88,0 1356.37,0 1356.37,0 1362.37,0 1368.37,-6 1368.37,-12 1368.37,-12 1368.37,-38 1368.37,-38 1368.37,-44 1362.37,-50 1356.37,-50"/>
<text text-anchor="middle" x="1314.12" y="-34.8" font-family="Helvetica,sans-Serif" font-size="14.00">mse = 2.591</text>
<text text-anchor="middle" x="1314.12" y="-20.8" font-family="Helvetica,sans-Serif" font-size="14.00">samples = 25</text>
<text text-anchor="middle" x="1314.12" y="-6.8" font-family="Helvetica,sans-Serif" font-size="14.00">value = 28.172</text>
</g>
<!-- 21&#45;&gt;22 -->
<g id="edge22" class="edge">
<title>21&#45;&gt;22</title>
<path fill="none" stroke="black" d="M1318.07,-85.94C1317.52,-77.59 1316.93,-68.52 1316.37,-60.02"/>
<polygon fill="black" stroke="black" points="1319.86,-59.78 1315.71,-50.03 1312.87,-60.24 1319.86,-59.78"/>
</g>
<!-- 23 -->
<g id="node24" class="node">
<title>23</title>
<path fill="#f0b78e" stroke="black" d="M1482.37,-50C1482.37,-50 1397.88,-50 1397.88,-50 1391.88,-50 1385.88,-44 1385.88,-38 1385.88,-38 1385.88,-12 1385.88,-12 1385.88,-6 1391.88,0 1397.88,0 1397.88,0 1482.37,0 1482.37,0 1488.37,0 1494.37,-6 1494.37,-12 1494.37,-12 1494.37,-38 1494.37,-38 1494.37,-44 1488.37,-50 1482.37,-50"/>
<text text-anchor="middle" x="1440.12" y="-34.8" font-family="Helvetica,sans-Serif" font-size="14.00">mse = 1.631</text>
<text text-anchor="middle" x="1440.12" y="-20.8" font-family="Helvetica,sans-Serif" font-size="14.00">samples = 112</text>
<text text-anchor="middle" x="1440.12" y="-6.8" font-family="Helvetica,sans-Serif" font-size="14.00">value = 26.348</text>
</g>
<!-- 21&#45;&gt;23 -->
<g id="edge23" class="edge">
<title>21&#45;&gt;23</title>
<path fill="none" stroke="black" d="M1361.08,-85.94C1373.78,-76.31 1387.75,-65.72 1400.37,-56.15"/>
<polygon fill="black" stroke="black" points="1402.58,-58.86 1408.43,-50.03 1398.35,-53.28 1402.58,-58.86"/>
</g>
<!-- 25 -->
<g id="node26" class="node">
<title>25</title>
<path fill="#eda876" stroke="black" d="M1668.42,-150C1668.42,-150 1571.83,-150 1571.83,-150 1565.83,-150 1559.83,-144 1559.83,-138 1559.83,-138 1559.83,-98 1559.83,-98 1559.83,-92 1565.83,-86 1571.83,-86 1571.83,-86 1668.42,-86 1668.42,-86 1674.42,-86 1680.42,-92 1680.42,-98 1680.42,-98 1680.42,-138 1680.42,-138 1680.42,-144 1674.42,-150 1668.42,-150"/>
<text text-anchor="middle" x="1620.12" y="-134.8" font-family="Helvetica,sans-Serif" font-size="14.00">wind&#45;gut &lt;= 3.15</text>
<text text-anchor="middle" x="1620.12" y="-120.8" font-family="Helvetica,sans-Serif" font-size="14.00">mse = 3.52</text>
<text text-anchor="middle" x="1620.12" y="-106.8" font-family="Helvetica,sans-Serif" font-size="14.00">samples = 140</text>
<text text-anchor="middle" x="1620.12" y="-92.8" font-family="Helvetica,sans-Serif" font-size="14.00">value = 28.901</text>
</g>
<!-- 24&#45;&gt;25 -->
<g id="edge25" class="edge">
<title>24&#45;&gt;25</title>
<path fill="none" stroke="black" d="M1620.12,-185.99C1620.12,-177.86 1620.12,-168.96 1620.12,-160.38"/>
<polygon fill="black" stroke="black" points="1623.62,-160.14 1620.12,-150.14 1616.62,-160.14 1623.62,-160.14"/>
</g>
<!-- 28 -->
<g id="node29" class="node">
<title>28</title>
<path fill="#e89152" stroke="black" d="M1870.48,-150C1870.48,-150 1765.76,-150 1765.76,-150 1759.76,-150 1753.76,-144 1753.76,-138 1753.76,-138 1753.76,-98 1753.76,-98 1753.76,-92 1759.76,-86 1765.76,-86 1765.76,-86 1870.48,-86 1870.48,-86 1876.48,-86 1882.48,-92 1882.48,-98 1882.48,-98 1882.48,-138 1882.48,-138 1882.48,-144 1876.48,-150 1870.48,-150"/>
<text text-anchor="middle" x="1818.12" y="-134.8" font-family="Helvetica,sans-Serif" font-size="14.00">avgtemp &lt;= 26.15</text>
<text text-anchor="middle" x="1818.12" y="-120.8" font-family="Helvetica,sans-Serif" font-size="14.00">mse = 5.06</text>
<text text-anchor="middle" x="1818.12" y="-106.8" font-family="Helvetica,sans-Serif" font-size="14.00">samples = 52</text>
<text text-anchor="middle" x="1818.12" y="-92.8" font-family="Helvetica,sans-Serif" font-size="14.00">value = 32.727</text>
</g>
<!-- 24&#45;&gt;28 -->
<g id="edge28" class="edge">
<title>24&#45;&gt;28</title>
<path fill="none" stroke="black" d="M1682.77,-185.99C1702.9,-176.03 1725.37,-164.91 1746.12,-154.64"/>
<polygon fill="black" stroke="black" points="1747.79,-157.72 1755.2,-150.14 1744.69,-151.44 1747.79,-157.72"/>
</g>
<!-- 26 -->
<g id="node27" class="node">
<title>26</title>
<path fill="#eb9d65" stroke="black" d="M1608.37,-50C1608.37,-50 1523.88,-50 1523.88,-50 1517.88,-50 1511.88,-44 1511.88,-38 1511.88,-38 1511.88,-12 1511.88,-12 1511.88,-6 1517.88,0 1523.88,0 1523.88,0 1608.37,0 1608.37,0 1614.37,0 1620.37,-6 1620.37,-12 1620.37,-12 1620.37,-38 1620.37,-38 1620.37,-44 1614.37,-50 1608.37,-50"/>
<text text-anchor="middle" x="1566.12" y="-34.8" font-family="Helvetica,sans-Serif" font-size="14.00">mse = 4.157</text>
<text text-anchor="middle" x="1566.12" y="-20.8" font-family="Helvetica,sans-Serif" font-size="14.00">samples = 28</text>
<text text-anchor="middle" x="1566.12" y="-6.8" font-family="Helvetica,sans-Serif" font-size="14.00">value = 30.725</text>
</g>
<!-- 25&#45;&gt;26 -->
<g id="edge26" class="edge">
<title>25&#45;&gt;26</title>
<path fill="none" stroke="black" d="M1601.69,-85.94C1596.52,-77.22 1590.88,-67.72 1585.65,-58.91"/>
<polygon fill="black" stroke="black" points="1588.49,-56.84 1580.38,-50.03 1582.47,-60.42 1588.49,-56.84"/>
</g>
<!-- 27 -->
<g id="node28" class="node">
<title>27</title>
<path fill="#eeaa7a" stroke="black" d="M1734.37,-50C1734.37,-50 1649.88,-50 1649.88,-50 1643.88,-50 1637.88,-44 1637.88,-38 1637.88,-38 1637.88,-12 1637.88,-12 1637.88,-6 1643.88,0 1649.88,0 1649.88,0 1734.37,0 1734.37,0 1740.37,0 1746.37,-6 1746.37,-12 1746.37,-12 1746.37,-38 1746.37,-38 1746.37,-44 1740.37,-50 1734.37,-50"/>
<text text-anchor="middle" x="1692.12" y="-34.8" font-family="Helvetica,sans-Serif" font-size="14.00">mse = 2.321</text>
<text text-anchor="middle" x="1692.12" y="-20.8" font-family="Helvetica,sans-Serif" font-size="14.00">samples = 112</text>
<text text-anchor="middle" x="1692.12" y="-6.8" font-family="Helvetica,sans-Serif" font-size="14.00">value = 28.445</text>
</g>
<!-- 25&#45;&gt;27 -->
<g id="edge27" class="edge">
<title>25&#45;&gt;27</title>
<path fill="none" stroke="black" d="M1644.7,-85.94C1651.81,-76.95 1659.59,-67.12 1666.74,-58.07"/>
<polygon fill="black" stroke="black" points="1669.65,-60.04 1673.11,-50.03 1664.16,-55.7 1669.65,-60.04"/>
</g>
<!-- 29 -->
<g id="node30" class="node">
<title>29</title>
<path fill="#e9965a" stroke="black" d="M1860.37,-50C1860.37,-50 1775.88,-50 1775.88,-50 1769.88,-50 1763.88,-44 1763.88,-38 1763.88,-38 1763.88,-12 1763.88,-12 1763.88,-6 1769.88,0 1775.88,0 1775.88,0 1860.37,0 1860.37,0 1866.37,0 1872.37,-6 1872.37,-12 1872.37,-12 1872.37,-38 1872.37,-38 1872.37,-44 1866.37,-50 1860.37,-50"/>
<text text-anchor="middle" x="1818.12" y="-34.8" font-family="Helvetica,sans-Serif" font-size="14.00">mse = 2.579</text>
<text text-anchor="middle" x="1818.12" y="-20.8" font-family="Helvetica,sans-Serif" font-size="14.00">samples = 39</text>
<text text-anchor="middle" x="1818.12" y="-6.8" font-family="Helvetica,sans-Serif" font-size="14.00">value = 31.838</text>
</g>
<!-- 28&#45;&gt;29 -->
<g id="edge29" class="edge">
<title>28&#45;&gt;29</title>
<path fill="none" stroke="black" d="M1818.12,-85.94C1818.12,-77.68 1818.12,-68.72 1818.12,-60.31"/>
<polygon fill="black" stroke="black" points="1821.62,-60.03 1818.12,-50.03 1814.62,-60.03 1821.62,-60.03"/>
</g>
<!-- 30 -->
<g id="node31" class="node">
<title>30</title>
<path fill="#e58139" stroke="black" d="M1986.37,-50C1986.37,-50 1901.88,-50 1901.88,-50 1895.88,-50 1889.88,-44 1889.88,-38 1889.88,-38 1889.88,-12 1889.88,-12 1889.88,-6 1895.88,0 1901.88,0 1901.88,0 1986.37,0 1986.37,0 1992.37,0 1998.37,-6 1998.37,-12 1998.37,-12 1998.37,-38 1998.37,-38 1998.37,-44 1992.37,-50 1986.37,-50"/>
<text text-anchor="middle" x="1944.12" y="-34.8" font-family="Helvetica,sans-Serif" font-size="14.00">mse = 3.031</text>
<text text-anchor="middle" x="1944.12" y="-20.8" font-family="Helvetica,sans-Serif" font-size="14.00">samples = 13</text>
<text text-anchor="middle" x="1944.12" y="-6.8" font-family="Helvetica,sans-Serif" font-size="14.00">value = 35.392</text>
</g>
<!-- 28&#45;&gt;30 -->
<g id="edge30" class="edge">
<title>28&#45;&gt;30</title>
<path fill="none" stroke="black" d="M1861.13,-85.94C1874.47,-76.31 1889.13,-65.72 1902.38,-56.15"/>
<polygon fill="black" stroke="black" points="1904.79,-58.72 1910.85,-50.03 1900.69,-53.05 1904.79,-58.72"/>
</g>
</g>
</svg>
